<?xml version="1.0" encoding="utf-8"?>
<!-- Generator: Adobe Illustrator 16.0.0, SVG Export Plug-In . SVG Version: 6.00 Build 0)  -->
<!DOCTYPE svg PUBLIC "-//W3C//DTD SVG 1.1//EN" "http://www.w3.org/Graphics/SVG/1.1/DTD/svg11.dtd">
<svg version="1.1" id="Layer_1" xmlns="http://www.w3.org/2000/svg" xmlns:xlink="http://www.w3.org/1999/xlink" x="0px" y="0px"
	 width="33.794px" height="29.813px" viewBox="0 0 33.794 29.813" enable-background="new 0 0 33.794 29.813" xml:space="preserve">
<g>
	<g>
		<rect y="3.811" width="22.105" height="8.984"/>
		<g>
			<path fill="#FFFFFF" d="M-0.619,6.703h2.025v0.305c-0.165,0.004-0.248,0.07-0.248,0.198c0,0.06,0.015,0.132,0.044,0.217
				l1.361,3.948l0.724-1.735c0.305-0.736,0.457-1.356,0.457-1.86c0-0.5-0.301-0.755-0.901-0.768V6.703h2.063v0.305
				c-0.182,0-0.273,0.062-0.273,0.184c0,0.059,0.021,0.148,0.063,0.267l1.354,3.907l0.788-1.92c0.279-0.677,0.42-1.242,0.421-1.695
				c0-0.241-0.07-0.425-0.211-0.552c-0.14-0.127-0.38-0.19-0.718-0.19V6.703h2.723v0.305C8.773,7.05,8.527,7.201,8.315,7.462
				C8.104,7.722,7.861,8.18,7.588,8.836L5.925,12.81H5.544l-1.355-3.91C3.99,9.272,3.836,9.572,3.726,9.801l-0.223,0.457
				c-0.085,0.161-0.157,0.317-0.216,0.47L2.434,12.81H2.053l-1.46-4.234C0.386,7.962,0.192,7.551,0.013,7.341
				c-0.18-0.209-0.391-0.32-0.632-0.333V6.703z"/>
			<path fill="#FFFFFF" d="M11.302,3.529v0.273c-0.173,0.068-0.26,0.22-0.26,0.457v4.367c0.495-0.703,0.965-1.229,1.409-1.581
				s0.863-0.527,1.257-0.527c0.326,0,0.58,0.116,0.762,0.349c0.182,0.237,0.273,0.584,0.273,1.041v3.313
				c0,0.364,0.073,0.618,0.219,0.762c0.146,0.144,0.396,0.22,0.752,0.229v0.305h-2.222v-0.305c0.186-0.008,0.279-0.123,0.279-0.343
				v-3.79c0-0.275-0.056-0.481-0.167-0.619c-0.112-0.138-0.279-0.207-0.502-0.207c-0.522,0-1.008,0.384-1.457,1.152
				c-0.449,0.769-0.673,1.61-0.673,2.524c0,0.855,0.259,1.282,0.776,1.281H12v0.305H9.112v-0.305
				c0.326-0.008,0.567-0.081,0.724-0.216s0.235-0.394,0.235-0.774V4.958c0-0.25-0.141-0.375-0.422-0.375
				c-0.158,0-0.338,0.04-0.543,0.121V4.399L11.302,3.529z"/>
			<path fill="#FFFFFF" d="M19.415,6.538c0.799,0,1.439,0.251,1.92,0.752c0.48,0.502,0.721,1.169,0.721,2.003
				c0,0.99,0.102,2.3-0.566,2.942c-0.669,0.641-1.842,0.467-2.646,0.467c-0.804,0-1.438-0.255-1.904-0.765
				c-0.465-0.51-0.698-1.173-0.698-1.99c0-0.973,0.331-1.785,0.993-2.434C17.896,6.863,18.623,6.538,19.415,6.538z M18.875,7.033
				c-0.576,0-1.016,0.205-1.32,0.616s-0.457,0.925-0.457,1.542c0,0.762,0.24,1.442,0.72,2.041c0.48,0.599,1.041,0.898,1.679,0.898
				c0.475,0,0.875-0.197,1.203-0.59s0.492-0.908,0.492-1.542c0-0.588-0.132-1.116-0.395-1.583c-0.262-0.468-0.563-0.815-0.9-1.041
				C19.558,7.146,19.217,7.033,18.875,7.033z"/>
		</g>
		<g>
			<path d="M26.037,0.783c-0.7,0.012-1.17,0.125-1.412,0.336c-0.24,0.212-0.36,0.614-0.36,1.206v8.471
				c0,0.997,0.592,1.512,1.772,1.543v0.469h-5.849l0.52-0.192c0.722-0.258,0.797-0.396,1.037-0.611
				c0.241-0.217,0.363-0.62,0.363-1.208V2.326c0-0.631-0.133-1.043-0.398-1.235c-0.264-0.191-0.723-0.295-1.375-0.307V0.314h5.702
				V0.783z"/>
			<path d="M27.451,9.799c0.062,0.848,0.351,1.504,0.868,1.974c0.518,0.469,1.139,0.703,1.861,0.703
				c0.598,0,1.087-0.153,1.469-0.459c0.381-0.306,0.571-0.693,0.571-1.163c0-0.417-0.144-0.769-0.431-1.055
				c-0.295-0.279-0.875-0.647-1.738-1.104c-0.613-0.326-1.175-0.63-1.68-0.914c-0.506-0.283-0.855-0.571-1.049-0.864
				c-0.202-0.293-0.305-0.593-0.305-0.899c0-0.631,0.35-1.196,1.045-1.69c0.696-0.496,1.619-0.743,2.77-0.743
				c0.707,0,1.469,0.13,2.285,0.391v2.56H32.28c-0.01-0.723-0.25-1.303-0.724-1.739c-0.476-0.437-1.019-0.654-1.634-0.654
				c-0.436,0-0.775,0.115-1.02,0.346c-0.246,0.232-0.367,0.503-0.367,0.816c0,0.352,0.141,0.655,0.42,0.908
				c0.272,0.261,0.82,0.606,1.645,1.036c1.414,0.75,2.301,1.276,2.658,1.583c0.357,0.312,0.536,0.726,0.536,1.241
				c0,0.814-0.429,1.52-1.288,2.119s-1.848,0.899-2.968,0.899c-0.831,0-1.792-0.196-2.882-0.585V9.799H27.451z"/>
		</g>
	</g>
	<g>
		<rect x="3.691" y="16.037" width="18.493" height="9.059"/>
		<g>
			<path fill="#FFFFFF" d="M5.948,17.098v0.33c-0.267,0.064-0.4,0.364-0.4,0.902c0,0.363,0.031,0.617,0.092,0.762
				c0.061,0.144,0.169,0.262,0.323,0.355c0.155,0.093,0.361,0.139,0.619,0.139H7.11v0.286H5.555v4.075
				c0,0.131,0.026,0.23,0.079,0.299c0.053,0.067,0.132,0.102,0.238,0.102c0.208,0,0.516-0.17,0.927-0.508
				c0.046-0.039,0.083-0.066,0.108-0.083v0.368c-0.722,0.647-1.296,0.971-1.725,0.971c-0.199,0-0.349-0.076-0.449-0.231
				c-0.1-0.154-0.149-0.384-0.149-0.688v-4.304H3.612v-0.286c0.373,0,0.637-0.074,0.793-0.222s0.235-0.408,0.235-0.78v-0.959
				L5.948,17.098z"/>
			<path fill="#FFFFFF" d="M9.731,15.924v0.273c-0.173,0.067-0.26,0.22-0.26,0.457v4.367c0.495-0.703,0.965-1.23,1.409-1.581
				s0.863-0.526,1.257-0.526c0.326,0,0.58,0.115,0.762,0.349c0.182,0.237,0.273,0.584,0.273,1.041v3.313
				c0,0.363,0.073,0.617,0.219,0.762c0.146,0.145,0.396,0.221,0.752,0.229v0.305h-2.222v-0.305c0.186-0.008,0.279-0.123,0.279-0.343
				v-3.79c0-0.274-0.056-0.48-0.167-0.618s-0.279-0.206-0.502-0.206c-0.522,0-1.008,0.384-1.457,1.152
				c-0.449,0.768-0.673,1.609-0.673,2.523c0,0.855,0.259,1.282,0.776,1.281h0.252v0.305H7.542v-0.305
				c0.326-0.008,0.567-0.08,0.724-0.216S8.5,23.998,8.5,23.617v-6.266c0-0.249-0.141-0.374-0.422-0.374
				c-0.158,0-0.338,0.04-0.543,0.12v-0.305L9.731,15.924z"/>
			<path fill="#FFFFFF" d="M14.778,24.607c0.326-0.008,0.569-0.079,0.73-0.213c0.161-0.133,0.241-0.393,0.241-0.777v-3.473
				c0-0.266-0.152-0.399-0.457-0.399c-0.11,0-0.23,0.027-0.362,0.083c-0.068,0.029-0.119,0.049-0.152,0.057v-0.324l1.63-0.641h0.312
				v4.697c0,0.377,0.078,0.634,0.235,0.771c0.157,0.137,0.402,0.211,0.736,0.219v0.305h-2.914V24.607z M16.219,16.279
				c0.182,0,0.331,0.061,0.447,0.181c0.117,0.121,0.175,0.264,0.175,0.429s-0.059,0.307-0.178,0.426
				c-0.119,0.118-0.262,0.178-0.432,0.178c-0.165,0-0.307-0.059-0.425-0.175s-0.178-0.259-0.178-0.429
				c0-0.178,0.062-0.324,0.184-0.438C15.935,16.336,16.071,16.279,16.219,16.279z"/>
			<path fill="#FFFFFF" d="M18.878,22.957c0.034,0.551,0.191,0.978,0.473,1.282c0.282,0.305,0.619,0.457,1.013,0.457
				c0.326,0,0.592-0.1,0.8-0.298c0.208-0.199,0.312-0.451,0.312-0.756c0-0.271-0.078-0.5-0.235-0.686
				c-0.161-0.182-0.476-0.421-0.946-0.717c-0.334-0.212-0.639-0.41-0.914-0.594c-0.274-0.185-0.465-0.371-0.571-0.563
				c-0.11-0.189-0.165-0.385-0.165-0.584c0-0.41,0.189-0.775,0.568-1.098s0.881-0.482,1.508-0.482c0.385,0,0.8,0.084,1.244,0.254
				v1.663h-0.457c-0.004-0.47-0.135-0.847-0.394-1.13s-0.554-0.426-0.889-0.426c-0.237,0-0.422,0.076-0.556,0.226
				c-0.133,0.15-0.199,0.327-0.199,0.53c0,0.229,0.076,0.426,0.229,0.59c0.147,0.17,0.445,0.395,0.895,0.674
				c0.77,0.486,1.252,0.829,1.447,1.027c0.195,0.203,0.292,0.473,0.292,0.807c0,0.529-0.233,0.988-0.701,1.377
				c-0.468,0.39-1.007,0.584-1.616,0.584c-0.452,0-0.975-0.127-1.567-0.381v-1.758H18.878z"/>
		</g>
		<g>
			<path d="M26.037,13.078c-0.7,0.012-1.17,0.125-1.412,0.336c-0.24,0.212-0.36,0.614-0.36,1.206v8.472
				c0,0.996,0.592,1.512,1.772,1.543v0.469h-5.849l0.52-0.192c0.722-0.258,0.797-0.396,1.037-0.611
				c0.241-0.217,0.363-0.62,0.363-1.208V14.62c0-0.631-0.133-1.043-0.398-1.235c-0.264-0.191-0.723-0.295-1.375-0.307v-0.469h5.702
				V13.078z"/>
			<path d="M27.451,22.094c0.062,0.848,0.351,1.504,0.868,1.975c0.518,0.469,1.139,0.702,1.861,0.702
				c0.598,0,1.087-0.153,1.469-0.459c0.381-0.306,0.571-0.693,0.571-1.163c0-0.417-0.144-0.769-0.431-1.055
				c-0.295-0.279-0.875-0.647-1.738-1.104c-0.613-0.326-1.175-0.63-1.68-0.914c-0.506-0.283-0.855-0.57-1.049-0.863
				c-0.202-0.294-0.305-0.594-0.305-0.899c0-0.632,0.35-1.196,1.045-1.69c0.696-0.495,1.619-0.742,2.77-0.742
				c0.707,0,1.469,0.131,2.285,0.391v2.56H32.28c-0.01-0.724-0.25-1.304-0.724-1.739c-0.476-0.437-1.019-0.654-1.634-0.654
				c-0.436,0-0.775,0.115-1.02,0.347c-0.246,0.231-0.367,0.503-0.367,0.816c0,0.353,0.141,0.655,0.42,0.908
				c0.272,0.261,0.82,0.606,1.645,1.036c1.414,0.75,2.301,1.275,2.658,1.582c0.357,0.313,0.536,0.727,0.536,1.241
				c0,0.813-0.429,1.521-1.288,2.119s-1.848,0.899-2.968,0.899c-0.831,0-1.792-0.197-2.882-0.586v-2.707H27.451z"/>
		</g>
	</g>
	<text transform="matrix(0.45 0 0 1 6.3926 28.5996)" font-family="'FootlightMTLight'" font-size="5">reverse phone number search</text>
</g>
</svg>
