<?xml version="1.0" encoding="utf-8"?>
<!-- Generator: Adobe Illustrator 16.0.0, SVG Export Plug-In . SVG Version: 6.00 Build 0)  -->
<!DOCTYPE svg PUBLIC "-//W3C//DTD SVG 1.1//EN" "http://www.w3.org/Graphics/SVG/1.1/DTD/svg11.dtd">
<svg version="1.1" id="Layer_1" xmlns="http://www.w3.org/2000/svg" xmlns:xlink="http://www.w3.org/1999/xlink" x="0px" y="0px"
	 width="68.216px" height="16.5px" viewBox="0 0 68.216 16.5" enable-background="new 0 0 68.216 16.5" xml:space="preserve">
<g>
	<rect x="-0.013" y="3.75" width="22.105" height="8.984"/>
	<g>
		<path fill="#FFFFFF" d="M-0.632,6.643h2.025v0.305c-0.165,0.004-0.248,0.07-0.248,0.198c0,0.06,0.015,0.132,0.044,0.217
			l1.361,3.948l0.724-1.735c0.305-0.736,0.457-1.356,0.457-1.86c0-0.5-0.301-0.755-0.901-0.768V6.643h2.063v0.305
			c-0.182,0-0.273,0.062-0.273,0.184c0,0.059,0.021,0.148,0.063,0.267l1.354,3.907l0.788-1.92c0.279-0.677,0.42-1.242,0.421-1.695
			c0-0.241-0.07-0.425-0.211-0.552c-0.14-0.127-0.38-0.19-0.718-0.19V6.643h2.723v0.305C8.761,6.99,8.514,7.141,8.303,7.401
			C8.091,7.661,7.849,8.12,7.576,8.775l-1.663,3.974H5.532l-1.355-3.91C3.978,9.211,3.823,9.512,3.713,9.74L3.49,10.197
			c-0.085,0.16-0.157,0.317-0.216,0.47l-0.853,2.082H2.041l-1.46-4.234C0.373,7.901,0.18,7.49,0,7.28
			c-0.18-0.209-0.391-0.32-0.632-0.333V6.643z"/>
		<path fill="#FFFFFF" d="M11.289,3.469v0.273c-0.173,0.068-0.26,0.22-0.26,0.457v4.367c0.495-0.703,0.965-1.229,1.409-1.581
			s0.863-0.527,1.257-0.527c0.326,0,0.58,0.116,0.762,0.349c0.182,0.237,0.273,0.584,0.273,1.041v3.313
			c0,0.363,0.073,0.617,0.219,0.762c0.146,0.145,0.396,0.221,0.752,0.229v0.305h-2.222v-0.305c0.186-0.008,0.279-0.123,0.279-0.343
			V8.02c0-0.275-0.056-0.481-0.167-0.619c-0.112-0.138-0.279-0.207-0.502-0.207c-0.522,0-1.008,0.384-1.457,1.152
			c-0.449,0.769-0.673,1.61-0.673,2.524c0,0.855,0.259,1.282,0.776,1.281h0.252v0.305H9.099v-0.305
			c0.326-0.008,0.567-0.08,0.724-0.216s0.235-0.394,0.235-0.774V4.897c0-0.25-0.141-0.375-0.422-0.375
			c-0.158,0-0.338,0.04-0.543,0.121V4.338L11.289,3.469z"/>
		<path fill="#FFFFFF" d="M19.401,6.478c0.8,0,1.44,0.251,1.92,0.752c0.48,0.502,0.721,1.169,0.721,2.003
			c0,0.99,0.102,2.301-0.566,2.941s-1.841,0.467-2.646,0.467s-1.439-0.254-1.904-0.765c-0.465-0.51-0.698-1.173-0.698-1.989
			c0-0.974,0.331-1.785,0.993-2.435C17.883,6.802,18.61,6.478,19.401,6.478z M18.862,6.973c-0.576,0-1.016,0.205-1.32,0.616
			s-0.457,0.925-0.457,1.542c0,0.762,0.24,1.441,0.72,2.041c0.48,0.599,1.04,0.898,1.679,0.898c0.474,0,0.875-0.197,1.203-0.591
			c0.328-0.394,0.492-0.907,0.492-1.542c0-0.589-0.131-1.117-0.394-1.584c-0.262-0.468-0.563-0.815-0.901-1.041
			C19.545,7.086,19.205,6.973,18.862,6.973z"/>
	</g>
	<g>
		<path d="M26.024,0.723c-0.7,0.012-1.17,0.125-1.412,0.336c-0.24,0.212-0.36,0.614-0.36,1.206v8.471
			c0,0.996,0.591,1.512,1.772,1.543v0.469h-5.849l0.52-0.191c0.722-0.258,0.796-0.396,1.037-0.611
			c0.241-0.217,0.363-0.621,0.363-1.209V2.265c0-0.631-0.133-1.043-0.398-1.235c-0.264-0.191-0.722-0.295-1.375-0.307V0.253h5.703
			V0.723z"/>
		<path d="M27.438,9.738c0.061,0.849,0.351,1.505,0.869,1.975c0.517,0.469,1.138,0.703,1.86,0.703c0.598,0,1.087-0.154,1.469-0.459
			c0.381-0.307,0.572-0.693,0.572-1.163c0-0.417-0.144-0.769-0.431-1.056c-0.295-0.279-0.875-0.647-1.738-1.103
			c-0.613-0.326-1.175-0.63-1.679-0.914c-0.506-0.283-0.856-0.571-1.049-0.864c-0.202-0.293-0.304-0.593-0.304-0.899
			c0-0.631,0.349-1.196,1.045-1.69c0.696-0.496,1.618-0.743,2.77-0.743c0.706,0,1.469,0.13,2.285,0.391v2.56h-0.837
			c-0.01-0.723-0.251-1.303-0.724-1.739C31.068,4.3,30.525,4.083,29.91,4.083c-0.436,0-0.775,0.115-1.02,0.346
			c-0.246,0.232-0.367,0.503-0.367,0.816c0,0.352,0.14,0.655,0.419,0.908c0.273,0.261,0.82,0.606,1.645,1.036
			c1.415,0.75,2.301,1.276,2.658,1.583c0.358,0.312,0.537,0.726,0.537,1.241c0,0.813-0.428,1.52-1.288,2.119
			c-0.859,0.599-1.848,0.898-2.968,0.898c-0.832,0-1.792-0.196-2.881-0.586V9.738H27.438z"/>
	</g>
</g>
<g>
	<rect x="38.112" y="3.682" width="18.494" height="9.059"/>
	<g>
		<path fill="#FFFFFF" d="M40.37,4.743v0.33c-0.268,0.063-0.4,0.364-0.4,0.901c0,0.364,0.031,0.618,0.092,0.762
			c0.062,0.144,0.17,0.262,0.324,0.355s0.36,0.14,0.619,0.14h0.526v0.286h-1.556v4.075c0,0.132,0.027,0.23,0.08,0.299
			s0.132,0.102,0.238,0.102c0.207,0,0.516-0.17,0.926-0.508c0.047-0.038,0.083-0.065,0.108-0.082v0.367
			c-0.722,0.648-1.296,0.972-1.726,0.972c-0.199,0-0.349-0.077-0.448-0.231s-0.149-0.385-0.149-0.689V7.517h-0.971V7.231
			c0.372,0,0.637-0.074,0.793-0.222s0.234-0.408,0.234-0.781V5.27L40.37,4.743z"/>
		<path fill="#FFFFFF" d="M44.153,3.569v0.273c-0.174,0.068-0.261,0.22-0.261,0.457v4.367c0.495-0.703,0.965-1.229,1.409-1.581
			s0.863-0.527,1.257-0.527c0.325,0,0.579,0.116,0.762,0.349c0.183,0.237,0.272,0.584,0.272,1.041v3.313
			c0,0.364,0.073,0.618,0.22,0.762c0.146,0.145,0.396,0.221,0.752,0.229v0.305h-2.222v-0.305c0.186-0.008,0.279-0.122,0.279-0.342
			V8.12c0-0.275-0.056-0.481-0.168-0.619c-0.111-0.138-0.279-0.207-0.502-0.207c-0.522,0-1.008,0.384-1.457,1.152
			c-0.448,0.769-0.672,1.609-0.672,2.523c0,0.855,0.258,1.283,0.775,1.281h0.252v0.305h-2.888v-0.305
			c0.325-0.008,0.567-0.08,0.724-0.215c0.156-0.136,0.234-0.395,0.234-0.775V4.997c0-0.25-0.141-0.375-0.422-0.375
			c-0.157,0-0.338,0.04-0.543,0.121V4.438L44.153,3.569z"/>
		<path fill="#FFFFFF" d="M49.199,12.252c0.325-0.008,0.569-0.078,0.729-0.213c0.161-0.133,0.242-0.392,0.242-0.777V7.79
			c0-0.267-0.152-0.4-0.457-0.4c-0.11,0-0.23,0.027-0.362,0.083c-0.067,0.03-0.118,0.049-0.152,0.057V7.206l1.63-0.641h0.313v4.697
			c0,0.377,0.078,0.635,0.234,0.771c0.157,0.138,0.402,0.211,0.736,0.219v0.305h-2.913V12.252z M50.64,3.924
			c0.183,0,0.332,0.061,0.447,0.181c0.117,0.121,0.176,0.264,0.176,0.429s-0.06,0.307-0.178,0.425
			c-0.119,0.119-0.263,0.178-0.432,0.178c-0.166,0-0.307-0.058-0.426-0.174c-0.119-0.117-0.178-0.259-0.178-0.429
			c0-0.178,0.062-0.324,0.184-0.438C50.356,3.981,50.492,3.924,50.64,3.924z"/>
		<path fill="#FFFFFF" d="M53.3,10.602c0.033,0.551,0.191,0.979,0.473,1.283s0.619,0.457,1.013,0.457c0.325,0,0.593-0.1,0.8-0.299
			s0.311-0.451,0.311-0.756c0-0.271-0.078-0.499-0.234-0.686c-0.16-0.182-0.477-0.42-0.945-0.717
			c-0.335-0.211-0.64-0.41-0.914-0.593c-0.275-0.185-0.466-0.372-0.572-0.562c-0.109-0.19-0.164-0.385-0.164-0.584
			c0-0.411,0.189-0.776,0.567-1.098c0.379-0.322,0.882-0.482,1.508-0.482c0.386,0,0.8,0.084,1.244,0.254v1.663h-0.457
			c-0.005-0.47-0.136-0.846-0.394-1.13s-0.555-0.425-0.889-0.425c-0.236,0-0.422,0.075-0.556,0.225c-0.133,0.15-0.2,0.327-0.2,0.53
			c0,0.229,0.076,0.425,0.229,0.59c0.148,0.169,0.447,0.394,0.896,0.673c0.771,0.487,1.253,0.83,1.447,1.028
			c0.194,0.203,0.292,0.472,0.292,0.806c0,0.529-0.234,0.988-0.701,1.378c-0.468,0.39-1.006,0.584-1.615,0.584
			c-0.453,0-0.977-0.127-1.568-0.381v-1.759H53.3z"/>
	</g>
	<g>
		<path d="M60.458,0.723c-0.699,0.012-1.17,0.125-1.412,0.336c-0.24,0.212-0.36,0.614-0.36,1.206v8.471
			c0,0.996,0.591,1.512,1.772,1.543v0.469h-5.849l0.52-0.191c0.722-0.258,0.796-0.396,1.037-0.611
			c0.241-0.217,0.362-0.621,0.362-1.209V2.265c0-0.631-0.133-1.043-0.397-1.235c-0.265-0.191-0.722-0.295-1.376-0.307V0.253h5.703
			V0.723z"/>
		<path d="M61.872,9.738c0.061,0.849,0.352,1.505,0.869,1.975c0.516,0.469,1.137,0.703,1.859,0.703c0.599,0,1.088-0.154,1.469-0.459
			c0.381-0.307,0.572-0.693,0.572-1.163c0-0.417-0.144-0.769-0.431-1.056c-0.296-0.279-0.874-0.647-1.738-1.103
			c-0.613-0.326-1.175-0.63-1.679-0.914c-0.506-0.283-0.856-0.571-1.05-0.864c-0.202-0.293-0.304-0.593-0.304-0.899
			c0-0.631,0.348-1.196,1.045-1.69c0.695-0.496,1.617-0.743,2.77-0.743c0.705,0,1.469,0.13,2.284,0.391v2.56h-0.837
			c-0.01-0.723-0.252-1.303-0.725-1.739C65.503,4.3,64.96,4.083,64.345,4.083c-0.436,0-0.775,0.115-1.021,0.346
			c-0.245,0.232-0.366,0.503-0.366,0.816c0,0.352,0.139,0.655,0.418,0.908c0.273,0.261,0.82,0.606,1.645,1.036
			c1.415,0.75,2.302,1.276,2.658,1.583c0.359,0.312,0.537,0.726,0.537,1.241c0,0.813-0.428,1.52-1.288,2.119
			c-0.859,0.599-1.849,0.898-2.968,0.898c-0.832,0-1.792-0.196-2.881-0.586V9.738H61.872z"/>
	</g>
</g>
<text transform="matrix(1.38 0 0 1 0.3682 15.5234)" font-family="'FootlightMTLight'" font-size="4">reverse phone number search</text>
</svg>
