<?xml version="1.0" encoding="utf-8"?>
<!-- Generator: Adobe Illustrator 16.0.0, SVG Export Plug-In . SVG Version: 6.00 Build 0)  -->
<!DOCTYPE svg PUBLIC "-//W3C//DTD SVG 1.1//EN" "http://www.w3.org/Graphics/SVG/1.1/DTD/svg11.dtd">
<svg version="1.1" id="Layer_1" xmlns="http://www.w3.org/2000/svg" xmlns:xlink="http://www.w3.org/1999/xlink" x="0px" y="0px"
	 width="33.794px" height="13.177px" viewBox="0 0 33.794 13.177" enable-background="new 0 0 33.794 13.177" xml:space="preserve">
<g>
	<rect x="1.885" y="3.628" width="18.493" height="9.06"/>
	<g>
		<path fill="#FFFFFF" d="M4.142,4.689v0.33C3.875,5.083,3.742,5.383,3.742,5.921c0,0.363,0.03,0.617,0.092,0.762
			c0.062,0.144,0.169,0.262,0.323,0.355c0.155,0.093,0.361,0.14,0.619,0.14h0.527v0.286H3.748v4.074c0,0.132,0.026,0.23,0.079,0.299
			c0.054,0.068,0.133,0.102,0.238,0.102c0.208,0,0.517-0.17,0.927-0.508c0.047-0.038,0.083-0.065,0.108-0.082v0.367
			c-0.722,0.648-1.297,0.972-1.726,0.972c-0.199,0-0.349-0.077-0.448-0.231s-0.149-0.385-0.149-0.689V7.464H1.806V7.178
			c0.373,0,0.637-0.074,0.794-0.223c0.156-0.147,0.234-0.408,0.234-0.78V5.216L4.142,4.689z"/>
		<path fill="#FFFFFF" d="M7.925,3.515v0.273c-0.173,0.067-0.26,0.22-0.26,0.457v4.367C8.16,7.909,8.63,7.383,9.074,7.031
			c0.444-0.351,0.863-0.526,1.257-0.526c0.325,0,0.579,0.116,0.762,0.349c0.182,0.237,0.272,0.585,0.272,1.042v3.313
			c0,0.364,0.073,0.618,0.22,0.762c0.146,0.145,0.396,0.221,0.752,0.229v0.305h-2.222v-0.305c0.186-0.008,0.279-0.122,0.279-0.342
			v-3.79c0-0.274-0.056-0.481-0.168-0.618C10.115,7.31,9.947,7.241,9.725,7.241c-0.522,0-1.008,0.385-1.457,1.152
			c-0.448,0.769-0.673,1.609-0.673,2.523c0,0.855,0.259,1.283,0.776,1.281h0.252v0.305H5.735v-0.305
			c0.325-0.008,0.566-0.08,0.724-0.215c0.156-0.136,0.234-0.395,0.234-0.775V4.943c0-0.25-0.141-0.375-0.422-0.375
			c-0.157,0-0.338,0.04-0.543,0.121V4.385L7.925,3.515z"/>
		<path fill="#FFFFFF" d="M12.972,12.198c0.325-0.008,0.569-0.078,0.729-0.213c0.161-0.133,0.241-0.392,0.241-0.777V7.736
			c0-0.267-0.152-0.399-0.457-0.399c-0.109,0-0.23,0.027-0.361,0.082c-0.068,0.029-0.119,0.049-0.152,0.057V7.152l1.63-0.642h0.313
			v4.697c0,0.377,0.078,0.635,0.234,0.771c0.157,0.138,0.402,0.211,0.736,0.219v0.305h-2.913V12.198z M14.412,3.87
			c0.183,0,0.331,0.061,0.447,0.181c0.117,0.121,0.175,0.264,0.175,0.429s-0.059,0.307-0.178,0.426
			c-0.118,0.118-0.262,0.178-0.432,0.178c-0.165,0-0.307-0.059-0.425-0.175c-0.119-0.116-0.178-0.259-0.178-0.429
			c0-0.178,0.062-0.323,0.184-0.438C14.129,3.928,14.265,3.87,14.412,3.87z"/>
		<path fill="#FFFFFF" d="M17.072,10.548c0.033,0.551,0.191,0.979,0.473,1.283c0.282,0.305,0.619,0.457,1.013,0.457
			c0.326,0,0.592-0.1,0.8-0.299s0.312-0.451,0.312-0.756c0-0.271-0.078-0.499-0.235-0.686c-0.161-0.182-0.476-0.42-0.946-0.717
			c-0.334-0.211-0.639-0.41-0.914-0.594c-0.274-0.184-0.465-0.371-0.571-0.562c-0.109-0.19-0.165-0.386-0.165-0.584
			c0-0.411,0.189-0.776,0.568-1.099c0.379-0.321,0.881-0.482,1.508-0.482c0.385,0,0.8,0.085,1.244,0.254v1.664H19.7
			c-0.004-0.471-0.135-0.847-0.394-1.131c-0.259-0.283-0.554-0.425-0.889-0.425c-0.237,0-0.422,0.075-0.556,0.225
			c-0.133,0.151-0.199,0.327-0.199,0.53c0,0.229,0.076,0.426,0.229,0.591c0.147,0.169,0.445,0.394,0.895,0.673
			c0.77,0.486,1.252,0.83,1.447,1.028c0.195,0.203,0.292,0.472,0.292,0.806c0,0.529-0.233,0.988-0.701,1.378
			s-1.007,0.584-1.616,0.584c-0.452,0-0.976-0.127-1.567-0.381v-1.759H17.072z"/>
	</g>
	<g>
		<path d="M24.23,0.669c-0.7,0.012-1.17,0.125-1.412,0.336c-0.24,0.212-0.36,0.614-0.36,1.206v8.472
			c0,0.996,0.592,1.512,1.772,1.543v0.469h-5.849l0.52-0.191c0.722-0.258,0.797-0.396,1.037-0.611
			c0.241-0.217,0.363-0.621,0.363-1.209V2.211c0-0.631-0.133-1.043-0.398-1.235c-0.264-0.191-0.723-0.295-1.375-0.307v-0.47h5.702
			V0.669z"/>
		<path d="M25.645,9.685c0.062,0.849,0.351,1.505,0.868,1.975c0.518,0.469,1.139,0.703,1.861,0.703c0.598,0,1.087-0.154,1.469-0.459
			c0.381-0.307,0.571-0.693,0.571-1.163c0-0.417-0.144-0.769-0.431-1.056c-0.295-0.279-0.875-0.646-1.738-1.104
			c-0.613-0.325-1.175-0.629-1.68-0.914c-0.506-0.283-0.855-0.57-1.049-0.863c-0.202-0.294-0.305-0.593-0.305-0.899
			c0-0.631,0.35-1.195,1.045-1.689c0.696-0.496,1.619-0.743,2.77-0.743c0.707,0,1.469,0.131,2.285,0.391v2.56h-0.838
			c-0.01-0.723-0.25-1.303-0.724-1.739c-0.476-0.437-1.019-0.653-1.634-0.653c-0.436,0-0.775,0.115-1.02,0.346
			c-0.246,0.232-0.367,0.504-0.367,0.816c0,0.353,0.141,0.655,0.42,0.908c0.272,0.261,0.82,0.606,1.645,1.036
			c1.414,0.75,2.301,1.276,2.658,1.583c0.357,0.312,0.536,0.726,0.536,1.241c0,0.813-0.429,1.52-1.288,2.119
			c-0.859,0.599-1.848,0.898-2.968,0.898c-0.831,0-1.792-0.196-2.882-0.586V9.685H25.645z"/>
	</g>
</g>
</svg>
