<?xml version="1.0" encoding="utf-8"?>
<!-- Generator: Adobe Illustrator 16.0.0, SVG Export Plug-In . SVG Version: 6.00 Build 0)  -->
<!DOCTYPE svg PUBLIC "-//W3C//DTD SVG 1.1//EN" "http://www.w3.org/Graphics/SVG/1.1/DTD/svg11.dtd">
<svg version="1.1" id="Layer_1" xmlns="http://www.w3.org/2000/svg" xmlns:xlink="http://www.w3.org/1999/xlink" x="0px" y="0px"
	 width="68.215px" height="16.752px" viewBox="0 0 68.215 16.752" enable-background="new 0 0 68.215 16.752" xml:space="preserve">
<g>
	<rect x="-0.013" y="3.75" width="22.105" height="8.984"/>
	<g>
		<path fill="#FFFFFF" d="M-0.632,6.643h2.025v0.305c-0.165,0.004-0.248,0.07-0.248,0.198c0,0.06,0.015,0.132,0.044,0.217
			l1.361,3.948l0.724-1.734C3.579,8.84,3.731,8.22,3.731,7.716c0-0.5-0.301-0.755-0.901-0.768V6.643h2.063v0.305
			c-0.182,0-0.273,0.062-0.273,0.184c0,0.059,0.021,0.148,0.063,0.267l1.354,3.908l0.788-1.921c0.279-0.677,0.42-1.242,0.421-1.695
			c0-0.241-0.07-0.425-0.211-0.552c-0.14-0.127-0.38-0.19-0.718-0.19V6.643H9.04v0.305C8.761,6.99,8.514,7.141,8.303,7.401
			C8.091,7.661,7.849,8.12,7.576,8.775l-1.663,3.974H5.532l-1.355-3.91C3.978,9.211,3.823,9.512,3.713,9.74L3.49,10.197
			c-0.085,0.16-0.157,0.316-0.216,0.47l-0.853,2.082h-0.38l-1.46-4.234C0.373,7.901,0.18,7.49,0,7.28
			c-0.18-0.209-0.391-0.32-0.632-0.333V6.643z"/>
		<path fill="#FFFFFF" d="M11.289,3.469v0.273c-0.173,0.068-0.26,0.22-0.26,0.457v4.367c0.495-0.703,0.965-1.229,1.409-1.581
			s0.863-0.527,1.257-0.527c0.326,0,0.58,0.116,0.762,0.349c0.182,0.237,0.273,0.584,0.273,1.041v3.313
			c0,0.362,0.073,0.616,0.219,0.762s0.396,0.222,0.752,0.229v0.305h-2.222v-0.305c0.186-0.008,0.279-0.123,0.279-0.344V8.02
			c0-0.275-0.056-0.481-0.167-0.619c-0.112-0.138-0.279-0.207-0.502-0.207c-0.522,0-1.008,0.384-1.457,1.152
			c-0.449,0.769-0.673,1.61-0.673,2.524c0,0.854,0.259,1.282,0.776,1.28h0.252v0.306H9.099V12.15
			c0.326-0.008,0.567-0.08,0.724-0.215c0.157-0.137,0.235-0.395,0.235-0.774V4.897c0-0.25-0.141-0.375-0.422-0.375
			c-0.158,0-0.338,0.04-0.543,0.121V4.338L11.289,3.469z"/>
		<path fill="#FFFFFF" d="M19.401,6.478c0.8,0,1.44,0.251,1.92,0.752c0.48,0.502,0.721,1.169,0.721,2.002
			c0,0.99,0.102,2.302-0.566,2.941c-0.668,0.641-1.841,0.467-2.646,0.467c-0.805,0-1.439-0.254-1.904-0.765
			c-0.465-0.51-0.698-1.173-0.698-1.989c0-0.974,0.331-1.785,0.993-2.435C17.883,6.802,18.61,6.478,19.401,6.478z M18.862,6.973
			c-0.576,0-1.016,0.205-1.32,0.616s-0.457,0.925-0.457,1.542c0,0.762,0.24,1.441,0.72,2.041s1.04,0.898,1.679,0.898
			c0.474,0,0.875-0.197,1.203-0.592c0.328-0.394,0.492-0.906,0.492-1.541c0-0.59-0.131-1.117-0.394-1.584
			c-0.262-0.468-0.563-0.815-0.901-1.041C19.545,7.086,19.205,6.973,18.862,6.973z"/>
	</g>
	<g>
		<path d="M26.024,0.723c-0.7,0.012-1.17,0.125-1.412,0.336c-0.24,0.212-0.36,0.614-0.36,1.206v8.471
			c0,0.996,0.591,1.512,1.772,1.543v0.469h-5.849l0.52-0.191c0.722-0.258,0.796-0.396,1.037-0.611
			c0.241-0.217,0.363-0.62,0.363-1.209V2.265c0-0.631-0.133-1.043-0.398-1.235c-0.264-0.191-0.722-0.295-1.375-0.307v-0.47h5.703
			L26.024,0.723L26.024,0.723z"/>
		<path d="M27.438,9.738c0.061,0.849,0.351,1.505,0.869,1.975c0.517,0.469,1.138,0.703,1.86,0.703c0.598,0,1.087-0.154,1.469-0.459
			c0.381-0.307,0.572-0.693,0.572-1.163c0-0.417-0.144-0.769-0.431-1.056c-0.295-0.279-0.875-0.647-1.738-1.104
			c-0.613-0.326-1.175-0.63-1.679-0.914c-0.506-0.283-0.856-0.571-1.049-0.864c-0.202-0.293-0.304-0.593-0.304-0.899
			c0-0.631,0.349-1.196,1.045-1.69c0.696-0.496,1.618-0.743,2.77-0.743c0.706,0,1.469,0.13,2.285,0.391v2.56H32.27
			c-0.01-0.723-0.251-1.303-0.724-1.739C31.068,4.3,30.525,4.083,29.91,4.083c-0.436,0-0.775,0.115-1.02,0.346
			c-0.246,0.232-0.367,0.503-0.367,0.816c0,0.352,0.14,0.655,0.419,0.908c0.273,0.261,0.82,0.606,1.645,1.036
			c1.415,0.75,2.301,1.276,2.658,1.583c0.358,0.313,0.537,0.727,0.537,1.242c0,0.813-0.428,1.52-1.288,2.118
			c-0.859,0.599-1.848,0.898-2.968,0.898c-0.832,0-1.792-0.196-2.881-0.587V9.738H27.438z"/>
	</g>
</g>
<g>
	<rect x="38.112" y="3.682" width="18.494" height="9.059"/>
	<g>
		<path fill="#FFFFFF" d="M40.37,4.743v0.33c-0.268,0.063-0.399,0.364-0.399,0.901c0,0.364,0.03,0.618,0.092,0.762
			s0.17,0.262,0.324,0.355c0.153,0.093,0.36,0.14,0.618,0.14h0.526v0.286h-1.556v4.075c0,0.133,0.027,0.23,0.08,0.299
			c0.053,0.069,0.132,0.103,0.238,0.103c0.207,0,0.516-0.17,0.926-0.509c0.047-0.037,0.082-0.064,0.107-0.082v0.367
			c-0.722,0.648-1.296,0.973-1.726,0.973c-0.199,0-0.349-0.077-0.448-0.231c-0.099-0.153-0.148-0.385-0.148-0.688V7.517h-0.971
			V7.231c0.371,0,0.637-0.074,0.793-0.222c0.155-0.148,0.233-0.408,0.233-0.781V5.27L40.37,4.743z"/>
		<path fill="#FFFFFF" d="M44.153,3.569v0.273c-0.174,0.068-0.261,0.22-0.261,0.457v4.367c0.495-0.703,0.965-1.229,1.409-1.581
			c0.443-0.352,0.863-0.527,1.257-0.527c0.325,0,0.579,0.116,0.762,0.349c0.183,0.237,0.272,0.584,0.272,1.041v3.313
			c0,0.364,0.072,0.618,0.22,0.763c0.146,0.145,0.396,0.221,0.752,0.229v0.305h-2.222v-0.305c0.186-0.008,0.279-0.122,0.279-0.342
			V8.12c0-0.275-0.057-0.481-0.168-0.619s-0.279-0.207-0.502-0.207c-0.522,0-1.009,0.384-1.457,1.152
			c-0.449,0.769-0.673,1.609-0.673,2.523c0,0.855,0.259,1.283,0.775,1.281h0.252v0.305h-2.888V12.25
			c0.324-0.008,0.566-0.08,0.724-0.215c0.155-0.137,0.233-0.395,0.233-0.775V4.997c0-0.25-0.141-0.375-0.422-0.375
			c-0.156,0-0.338,0.04-0.543,0.121V4.438L44.153,3.569z"/>
		<path fill="#FFFFFF" d="M49.2,12.252c0.324-0.008,0.568-0.078,0.729-0.213c0.16-0.133,0.242-0.393,0.242-0.777V7.79
			c0-0.267-0.152-0.4-0.457-0.4c-0.11,0-0.23,0.027-0.362,0.083c-0.067,0.03-0.118,0.049-0.151,0.057V7.206l1.629-0.641h0.313v4.697
			c0,0.377,0.078,0.635,0.233,0.771c0.158,0.138,0.402,0.211,0.736,0.219v0.305H49.2V12.252z M50.64,3.924
			c0.183,0,0.332,0.061,0.446,0.181c0.117,0.121,0.177,0.264,0.177,0.429s-0.06,0.307-0.179,0.425
			c-0.119,0.119-0.263,0.178-0.432,0.178c-0.166,0-0.307-0.058-0.426-0.174c-0.119-0.117-0.178-0.259-0.178-0.429
			c0-0.178,0.062-0.324,0.184-0.438C50.356,3.981,50.493,3.924,50.64,3.924z"/>
		<path fill="#FFFFFF" d="M53.299,10.602c0.033,0.551,0.191,0.979,0.474,1.283c0.282,0.305,0.619,0.457,1.013,0.457
			c0.325,0,0.594-0.1,0.801-0.299s0.311-0.451,0.311-0.756c0-0.271-0.078-0.499-0.234-0.686c-0.16-0.183-0.477-0.42-0.945-0.718
			c-0.334-0.211-0.639-0.409-0.913-0.593c-0.275-0.186-0.466-0.372-0.572-0.562c-0.108-0.19-0.164-0.385-0.164-0.584
			c0-0.411,0.188-0.776,0.567-1.098c0.379-0.322,0.882-0.482,1.508-0.482c0.386,0,0.8,0.084,1.244,0.254v1.663H55.93
			c-0.006-0.47-0.137-0.846-0.395-1.13c-0.258-0.284-0.555-0.425-0.889-0.425c-0.236,0-0.422,0.075-0.557,0.225
			c-0.133,0.15-0.199,0.327-0.199,0.53c0,0.229,0.076,0.425,0.229,0.59c0.148,0.169,0.447,0.394,0.896,0.673
			c0.771,0.486,1.253,0.83,1.447,1.027c0.193,0.203,0.291,0.473,0.291,0.807c0,0.529-0.233,0.988-0.7,1.378
			c-0.468,0.39-1.007,0.584-1.615,0.584c-0.453,0-0.978-0.127-1.567-0.382v-1.758H53.299L53.299,10.602z"/>
	</g>
	<g>
		<path d="M60.458,0.723c-0.699,0.012-1.17,0.125-1.412,0.336c-0.239,0.212-0.359,0.614-0.359,1.206v8.471
			c0,0.996,0.591,1.512,1.771,1.543v0.469h-5.849l0.521-0.191c0.722-0.258,0.795-0.396,1.037-0.611
			c0.24-0.217,0.361-0.62,0.361-1.209V2.265c0-0.631-0.133-1.043-0.396-1.235c-0.266-0.191-0.723-0.295-1.377-0.307v-0.47h5.703
			V0.723z"/>
		<path d="M61.872,9.738c0.062,0.849,0.353,1.505,0.869,1.975c0.516,0.469,1.137,0.703,1.859,0.703c0.6,0,1.088-0.154,1.469-0.459
			c0.381-0.307,0.572-0.693,0.572-1.163c0-0.417-0.145-0.769-0.432-1.056c-0.295-0.279-0.873-0.647-1.737-1.104
			c-0.613-0.326-1.175-0.63-1.679-0.914c-0.506-0.283-0.856-0.571-1.051-0.864c-0.201-0.293-0.304-0.593-0.304-0.899
			c0-0.631,0.349-1.196,1.045-1.69c0.695-0.496,1.617-0.743,2.771-0.743c0.705,0,1.469,0.13,2.283,0.391v2.56h-0.836
			c-0.011-0.723-0.252-1.303-0.726-1.739c-0.474-0.437-1.017-0.654-1.631-0.654c-0.437,0-0.775,0.115-1.021,0.346
			c-0.246,0.232-0.367,0.503-0.367,0.816c0,0.352,0.14,0.655,0.418,0.908c0.273,0.261,0.82,0.606,1.646,1.036
			c1.415,0.75,2.302,1.276,2.658,1.583c0.358,0.313,0.536,0.727,0.536,1.242c0,0.813-0.428,1.52-1.287,2.118
			s-1.85,0.898-2.969,0.898c-0.832,0-1.791-0.196-2.881-0.587V9.738H61.872z"/>
	</g>
</g>
<g enable-background="new    ">
	<path d="M0.628,14.106l0.708-0.209h0.119v0.635c0.185-0.229,0.351-0.392,0.496-0.487s0.294-0.144,0.447-0.144
		c0.06,0,0.13,0.01,0.213,0.029v0.602H2.42c-0.001-0.236-0.096-0.354-0.283-0.354c-0.185,0-0.35,0.109-0.495,0.329
		c-0.145,0.219-0.217,0.468-0.217,0.745c0,0.164,0.042,0.271,0.125,0.32c0.083,0.049,0.243,0.074,0.479,0.074v0.094H0.628v-0.094
		c0.147-0.003,0.253-0.026,0.318-0.069c0.064-0.044,0.097-0.122,0.097-0.235v-1.014c0-0.115-0.059-0.172-0.175-0.172
		c-0.049,0-0.128,0.014-0.24,0.043V14.106z"/>
	<path d="M5.051,15.251c-0.401,0.364-0.792,0.547-1.172,0.547c-0.268,0-0.504-0.085-0.709-0.253
		c-0.205-0.169-0.307-0.369-0.307-0.601c0-0.268,0.122-0.508,0.365-0.722c0.243-0.215,0.53-0.321,0.861-0.321
		c0.266,0,0.478,0.068,0.634,0.205s0.239,0.303,0.248,0.5H3.231c-0.003,0.051-0.005,0.088-0.005,0.111
		c0,0.23,0.084,0.423,0.253,0.577s0.377,0.231,0.625,0.231c0.309,0,0.624-0.135,0.946-0.404V15.251z M4.528,14.509
		c-0.021-0.154-0.089-0.273-0.202-0.357c-0.113-0.085-0.247-0.127-0.401-0.127c-0.162,0-0.307,0.046-0.434,0.138
		s-0.206,0.207-0.234,0.347H4.528z"/>
	<path d="M5.121,13.952h0.868v0.094c-0.068,0-0.103,0.023-0.103,0.07c0,0.023,0.009,0.055,0.027,0.094l0.575,1.17l0.339-0.609
		c0.113-0.203,0.17-0.367,0.171-0.492c0-0.082-0.031-0.142-0.092-0.177c-0.062-0.036-0.161-0.055-0.3-0.056v-0.094h1.151v0.094
		c-0.206,0.016-0.398,0.179-0.579,0.49L6.42,15.831H6.277L5.59,14.425c-0.122-0.252-0.278-0.378-0.469-0.379V13.952z"/>
	<path d="M9.964,15.251c-0.401,0.364-0.792,0.547-1.172,0.547c-0.268,0-0.504-0.085-0.709-0.253
		c-0.205-0.169-0.307-0.369-0.307-0.601c0-0.268,0.122-0.508,0.365-0.722c0.243-0.215,0.53-0.321,0.861-0.321
		c0.266,0,0.478,0.068,0.634,0.205s0.239,0.303,0.248,0.5H8.145c-0.003,0.051-0.005,0.088-0.005,0.111
		c0,0.23,0.084,0.423,0.253,0.577s0.377,0.231,0.625,0.231c0.309,0,0.624-0.135,0.946-0.404V15.251z M9.441,14.509
		c-0.021-0.154-0.089-0.273-0.202-0.357c-0.113-0.085-0.247-0.127-0.401-0.127c-0.162,0-0.307,0.046-0.434,0.138
		s-0.206,0.207-0.234,0.347H9.441z"/>
	<path d="M10.21,14.106l0.708-0.209h0.119v0.635c0.185-0.229,0.351-0.392,0.496-0.487s0.294-0.144,0.447-0.144
		c0.06,0,0.13,0.01,0.213,0.029v0.602h-0.191c-0.001-0.236-0.096-0.354-0.283-0.354c-0.185,0-0.35,0.109-0.495,0.329
		c-0.145,0.219-0.217,0.468-0.217,0.745c0,0.164,0.042,0.271,0.125,0.32c0.083,0.049,0.243,0.074,0.479,0.074v0.094H10.21v-0.094
		c0.147-0.003,0.253-0.026,0.318-0.069c0.064-0.044,0.097-0.122,0.097-0.235v-1.014c0-0.115-0.059-0.172-0.175-0.172
		c-0.049,0-0.128,0.014-0.24,0.043V14.106z"/>
	<path d="M12.729,15.14c0.014,0.169,0.081,0.301,0.201,0.395s0.263,0.141,0.43,0.141c0.138,0,0.251-0.031,0.339-0.092
		c0.088-0.062,0.132-0.139,0.132-0.232c0-0.084-0.033-0.154-0.1-0.211c-0.068-0.057-0.202-0.13-0.401-0.221
		c-0.142-0.065-0.271-0.126-0.388-0.183s-0.198-0.114-0.243-0.173c-0.046-0.059-0.07-0.119-0.07-0.18
		c0-0.127,0.08-0.239,0.241-0.338c0.161-0.1,0.374-0.148,0.64-0.148c0.164,0,0.339,0.025,0.528,0.078v0.512h-0.194
		c-0.001-0.145-0.058-0.261-0.167-0.348c-0.109-0.088-0.235-0.131-0.377-0.131c-0.101,0-0.179,0.022-0.236,0.069
		c-0.057,0.046-0.085,0.101-0.085,0.163c0,0.07,0.033,0.131,0.097,0.182c0.063,0.052,0.189,0.121,0.38,0.207
		c0.327,0.149,0.532,0.255,0.615,0.316c0.083,0.063,0.124,0.145,0.124,0.248c0,0.162-0.099,0.304-0.298,0.424
		c-0.199,0.119-0.427,0.18-0.686,0.18c-0.192,0-0.414-0.039-0.666-0.117V15.14H12.729z"/>
	<path d="M16.646,15.251c-0.401,0.364-0.792,0.547-1.172,0.547c-0.268,0-0.504-0.085-0.709-0.253
		c-0.205-0.169-0.307-0.369-0.307-0.601c0-0.268,0.122-0.508,0.365-0.722c0.243-0.215,0.53-0.321,0.861-0.321
		c0.266,0,0.478,0.068,0.634,0.205s0.239,0.303,0.248,0.5h-1.739c-0.003,0.051-0.005,0.088-0.005,0.111
		c0,0.23,0.084,0.423,0.253,0.577s0.377,0.231,0.625,0.231c0.309,0,0.624-0.135,0.946-0.404V15.251z M16.123,14.509
		c-0.021-0.154-0.089-0.273-0.202-0.357c-0.113-0.085-0.247-0.127-0.401-0.127c-0.162,0-0.307,0.046-0.434,0.138
		s-0.206,0.207-0.234,0.347H16.123z"/>
	<path d="M19.045,15.706v0.461c0,0.115,0.032,0.195,0.097,0.24c0.065,0.046,0.172,0.068,0.321,0.07v0.094h-1.229v-0.094
		c0.15-0.002,0.255-0.025,0.316-0.073c0.061-0.047,0.091-0.126,0.091-0.237v-1.869c0-0.098-0.053-0.146-0.158-0.146
		c-0.038,0-0.121,0.017-0.249,0.051v-0.098l0.69-0.203h0.121v0.636c0.255-0.254,0.463-0.425,0.624-0.511
		c0.161-0.086,0.323-0.129,0.486-0.129c0.216,0,0.401,0.065,0.557,0.198c0.155,0.132,0.233,0.308,0.233,0.526
		c0,0.307-0.141,0.58-0.422,0.818c-0.281,0.238-0.597,0.357-0.947,0.357c-0.081,0-0.166-0.008-0.254-0.023
		C19.232,15.759,19.14,15.735,19.045,15.706z M19.045,15.456c0.125,0.074,0.244,0.13,0.355,0.167
		c0.112,0.037,0.216,0.056,0.313,0.056c0.226,0,0.42-0.083,0.582-0.248s0.243-0.375,0.243-0.63c0-0.199-0.053-0.361-0.158-0.487
		c-0.105-0.127-0.247-0.189-0.424-0.189c-0.234,0-0.449,0.109-0.646,0.329c-0.196,0.22-0.295,0.473-0.295,0.757
		C19.015,15.271,19.025,15.354,19.045,15.456z"/>
	<path d="M22.131,12.976v0.084c-0.074,0.021-0.11,0.067-0.11,0.141v1.344c0.21-0.217,0.41-0.379,0.599-0.486
		c0.188-0.108,0.366-0.162,0.533-0.162c0.139,0,0.247,0.035,0.324,0.107s0.116,0.18,0.116,0.32v1.02
		c0,0.111,0.031,0.189,0.093,0.234c0.062,0.044,0.168,0.067,0.319,0.07v0.094h-0.943v-0.094c0.079-0.003,0.119-0.038,0.119-0.105
		v-1.166c0-0.085-0.024-0.148-0.071-0.19c-0.047-0.043-0.119-0.063-0.213-0.063c-0.222,0-0.428,0.118-0.618,0.354
		c-0.191,0.236-0.286,0.495-0.286,0.776c0,0.263,0.11,0.395,0.33,0.395h0.107v0.094h-1.227v-0.094
		c0.138-0.003,0.241-0.025,0.307-0.066c0.066-0.042,0.1-0.121,0.1-0.238v-1.928c0-0.077-0.06-0.115-0.179-0.115
		c-0.067,0-0.144,0.012-0.231,0.037v-0.094L22.131,12.976z"/>
	<path d="M25.576,13.901c0.339,0,0.611,0.077,0.815,0.231c0.204,0.154,0.306,0.359,0.306,0.616c0,0.305-0.142,0.556-0.426,0.753
		s-0.597,0.296-0.938,0.296s-0.611-0.079-0.809-0.235c-0.198-0.157-0.296-0.361-0.296-0.612c0-0.3,0.141-0.55,0.422-0.749
		C24.931,14.001,25.24,13.901,25.576,13.901z M25.347,14.054c-0.245,0-0.432,0.063-0.561,0.189
		c-0.129,0.126-0.194,0.284-0.194,0.475c0,0.234,0.102,0.443,0.306,0.628c0.204,0.184,0.441,0.276,0.713,0.276
		c0.201,0,0.371-0.061,0.511-0.182c0.139-0.121,0.208-0.279,0.208-0.475c0-0.182-0.056-0.344-0.167-0.487
		c-0.111-0.145-0.239-0.251-0.383-0.32C25.637,14.088,25.492,14.054,25.347,14.054z"/>
	<path d="M26.961,14.103l0.698-0.207h0.113v0.644c0.259-0.25,0.472-0.42,0.639-0.51c0.167-0.089,0.325-0.134,0.475-0.134
		c0.304,0,0.456,0.141,0.456,0.424v1.023c0,0.115,0.033,0.194,0.098,0.237c0.065,0.042,0.17,0.064,0.314,0.067v0.094h-0.938v-0.094
		c0.076-0.003,0.113-0.035,0.113-0.096v-1.206c0-0.067-0.024-0.121-0.073-0.162s-0.111-0.062-0.188-0.062
		c-0.227,0-0.437,0.116-0.632,0.348c-0.195,0.232-0.292,0.499-0.292,0.799c0,0.152,0.033,0.253,0.097,0.302
		c0.065,0.049,0.18,0.074,0.345,0.077v0.094h-1.224v-0.094c0.145-0.003,0.249-0.025,0.312-0.068
		c0.063-0.043,0.095-0.122,0.095-0.236v-0.998c0-0.129-0.059-0.193-0.177-0.193c-0.043,0-0.12,0.016-0.23,0.049V14.103z"/>
	<path d="M32.173,15.251c-0.401,0.364-0.792,0.547-1.172,0.547c-0.268,0-0.504-0.085-0.709-0.253
		c-0.205-0.169-0.307-0.369-0.307-0.601c0-0.268,0.122-0.508,0.365-0.722c0.243-0.215,0.53-0.321,0.861-0.321
		c0.266,0,0.478,0.068,0.634,0.205s0.239,0.303,0.248,0.5h-1.739c-0.003,0.051-0.005,0.088-0.005,0.111
		c0,0.23,0.084,0.423,0.253,0.577s0.377,0.231,0.625,0.231c0.309,0,0.624-0.135,0.946-0.404V15.251z M31.65,14.509
		c-0.021-0.154-0.089-0.273-0.202-0.357c-0.113-0.085-0.247-0.127-0.401-0.127c-0.162,0-0.307,0.046-0.434,0.138
		s-0.206,0.207-0.234,0.347H31.65z"/>
	<path d="M33.804,14.103l0.699-0.207h0.112v0.644c0.259-0.25,0.472-0.42,0.639-0.51c0.167-0.089,0.325-0.134,0.475-0.134
		c0.304,0,0.456,0.141,0.456,0.424v1.023c0,0.115,0.032,0.194,0.098,0.237c0.065,0.042,0.17,0.064,0.314,0.067v0.094h-0.938v-0.094
		c0.075-0.003,0.113-0.035,0.113-0.096v-1.206c0-0.067-0.024-0.121-0.073-0.162c-0.048-0.041-0.111-0.062-0.188-0.062
		c-0.227,0-0.438,0.116-0.633,0.348c-0.195,0.232-0.293,0.499-0.293,0.799c0,0.152,0.033,0.253,0.098,0.302s0.18,0.074,0.346,0.077
		v0.094h-1.225v-0.094c0.145-0.003,0.249-0.025,0.313-0.068c0.063-0.043,0.095-0.122,0.095-0.236v-0.998
		c0-0.129-0.06-0.193-0.177-0.193c-0.043,0-0.119,0.016-0.23,0.049V14.103z"/>
	<path d="M36.796,14.021l0.924-0.119v0.076c-0.073,0.016-0.109,0.061-0.109,0.135v1.21c0,0.08,0.023,0.143,0.072,0.188
		c0.048,0.045,0.113,0.068,0.193,0.068c0.206,0,0.412-0.113,0.615-0.338c0.205-0.226,0.307-0.49,0.307-0.795
		c0-0.117-0.021-0.205-0.063-0.262c-0.042-0.058-0.117-0.086-0.224-0.086c-0.034,0-0.085,0.005-0.153,0.016v-0.094l0.936-0.119
		v0.076c-0.078,0.009-0.118,0.054-0.118,0.135v1.26c0,0.121,0.062,0.182,0.187,0.182c0.073,0,0.168-0.02,0.282-0.059v0.094
		l-0.743,0.215h-0.133v-0.648c-0.282,0.278-0.506,0.455-0.67,0.53c-0.164,0.074-0.316,0.112-0.457,0.112
		c-0.296,0-0.444-0.152-0.444-0.457v-1.068c0-0.113-0.083-0.17-0.251-0.17c-0.035,0-0.086,0.004-0.15,0.012V14.021z"/>
	<path d="M42.189,14.476c0.279-0.255,0.49-0.416,0.631-0.482c0.142-0.066,0.281-0.1,0.418-0.1c0.127,0,0.233,0.032,0.318,0.096
		c0.082,0.064,0.124,0.149,0.124,0.257v1.097c0,0.115,0.032,0.194,0.099,0.237c0.064,0.042,0.17,0.064,0.313,0.067v0.094h-0.94
		v-0.094c0.077-0.002,0.115-0.032,0.115-0.092v-1.121c0-0.105-0.023-0.185-0.07-0.236c-0.048-0.053-0.119-0.078-0.215-0.078
		c-0.207,0-0.396,0.11-0.566,0.332s-0.256,0.477-0.256,0.764c0,0.163,0.034,0.274,0.103,0.336s0.182,0.093,0.34,0.096v0.094h-0.933
		v-0.094c0.075-0.003,0.113-0.027,0.113-0.072v-1.203c0-0.074-0.025-0.134-0.076-0.18c-0.052-0.046-0.115-0.068-0.193-0.068
		c-0.215,0-0.406,0.11-0.575,0.331c-0.169,0.222-0.253,0.478-0.253,0.769c0,0.159,0.033,0.27,0.1,0.331s0.18,0.093,0.338,0.093
		v0.094h-1.227v-0.094c0.146-0.003,0.25-0.026,0.313-0.07c0.063-0.045,0.094-0.123,0.094-0.234v-1.025
		c0-0.108-0.059-0.162-0.176-0.162c-0.059,0-0.135,0.014-0.23,0.043v-0.098l0.691-0.199h0.128v0.594
		c0.271-0.263,0.478-0.429,0.621-0.496c0.144-0.068,0.282-0.102,0.417-0.102c0.147,0,0.258,0.037,0.33,0.113
		c0.072,0.075,0.109,0.189,0.109,0.342C42.193,14.387,42.191,14.428,42.189,14.476z"/>
	<path d="M45.083,12.985v0.08c-0.05,0.021-0.074,0.056-0.074,0.104v1.339c0.336-0.28,0.574-0.452,0.713-0.514
		c0.138-0.063,0.279-0.093,0.422-0.093c0.23,0,0.414,0.065,0.551,0.198c0.137,0.132,0.206,0.3,0.206,0.504
		c0,0.172-0.05,0.339-0.151,0.5c-0.1,0.162-0.23,0.295-0.391,0.398c-0.159,0.104-0.311,0.169-0.451,0.197
		c-0.143,0.027-0.318,0.042-0.527,0.042h-0.248c-0.189,0-0.313,0.009-0.373,0.028c-0.061,0.019-0.105,0.05-0.137,0.095h-0.18
		c0.047-0.062,0.084-0.142,0.111-0.24c0.027-0.1,0.042-0.174,0.042-0.224v-1.925c0-0.115-0.06-0.172-0.181-0.172
		c-0.056,0-0.132,0.015-0.229,0.045v-0.094L45.083,12.985z M45.008,15.437c0.219,0.098,0.451,0.146,0.698,0.146
		c0.18,0,0.328-0.034,0.445-0.103s0.203-0.161,0.259-0.278s0.083-0.25,0.083-0.399c0-0.194-0.052-0.349-0.156-0.464
		c-0.104-0.116-0.246-0.174-0.43-0.174c-0.234,0-0.449,0.098-0.643,0.292c-0.194,0.195-0.291,0.428-0.291,0.698
		C44.974,15.239,44.986,15.332,45.008,15.437z"/>
	<path d="M49.31,15.251c-0.4,0.364-0.791,0.547-1.172,0.547c-0.268,0-0.504-0.085-0.709-0.253c-0.205-0.169-0.308-0.369-0.308-0.601
		c0-0.268,0.122-0.508,0.365-0.722c0.243-0.215,0.53-0.321,0.86-0.321c0.267,0,0.479,0.068,0.635,0.205s0.238,0.303,0.248,0.5
		h-1.739c-0.003,0.051-0.005,0.088-0.005,0.111c0,0.23,0.084,0.423,0.253,0.577s0.378,0.231,0.626,0.231
		c0.309,0,0.623-0.135,0.945-0.404V15.251z M48.787,14.509c-0.021-0.154-0.088-0.273-0.201-0.357
		c-0.113-0.085-0.248-0.127-0.402-0.127c-0.161,0-0.307,0.046-0.434,0.138s-0.205,0.207-0.234,0.347H48.787z"/>
	<path d="M49.556,14.106l0.708-0.209h0.118v0.635c0.186-0.229,0.352-0.392,0.496-0.487c0.146-0.096,0.295-0.144,0.447-0.144
		c0.061,0,0.131,0.01,0.213,0.029v0.602h-0.191c-0.001-0.236-0.096-0.354-0.282-0.354c-0.185,0-0.351,0.109-0.495,0.329
		c-0.145,0.219-0.217,0.468-0.217,0.745c0,0.164,0.042,0.271,0.125,0.32c0.084,0.049,0.244,0.074,0.479,0.074v0.094h-1.4v-0.094
		c0.146-0.003,0.252-0.026,0.317-0.069c0.064-0.044,0.097-0.122,0.097-0.235v-1.014c0-0.115-0.059-0.172-0.175-0.172
		c-0.049,0-0.128,0.014-0.239,0.043V14.106z"/>
	<path d="M53.388,15.14c0.014,0.169,0.081,0.301,0.201,0.395c0.119,0.094,0.262,0.141,0.43,0.141c0.139,0,0.252-0.031,0.34-0.092
		c0.088-0.062,0.132-0.139,0.132-0.232c0-0.084-0.033-0.154-0.101-0.211s-0.201-0.13-0.4-0.221
		c-0.143-0.065-0.271-0.126-0.389-0.183s-0.197-0.114-0.242-0.173c-0.047-0.059-0.07-0.119-0.07-0.18
		c0-0.127,0.08-0.239,0.241-0.338c0.161-0.1,0.374-0.148,0.64-0.148c0.164,0,0.34,0.025,0.529,0.078v0.512h-0.195
		c-0.001-0.145-0.057-0.261-0.166-0.348c-0.109-0.088-0.236-0.131-0.378-0.131c-0.101,0-0.179,0.022-0.235,0.069
		c-0.057,0.046-0.086,0.101-0.086,0.163c0,0.07,0.033,0.131,0.098,0.182c0.063,0.052,0.189,0.121,0.38,0.207
		c0.327,0.149,0.532,0.255,0.614,0.316c0.083,0.063,0.125,0.145,0.125,0.248c0,0.162-0.1,0.304-0.299,0.424
		c-0.198,0.119-0.427,0.18-0.686,0.18c-0.192,0-0.414-0.039-0.666-0.117V15.14H53.388z"/>
	<path d="M57.304,15.251c-0.4,0.364-0.791,0.547-1.172,0.547c-0.268,0-0.504-0.085-0.709-0.253
		c-0.205-0.169-0.307-0.369-0.307-0.601c0-0.268,0.121-0.508,0.365-0.722c0.242-0.215,0.529-0.321,0.86-0.321
		c0.267,0,0.478,0.068,0.634,0.205s0.238,0.303,0.248,0.5h-1.738c-0.004,0.051-0.006,0.088-0.006,0.111
		c0,0.23,0.084,0.423,0.254,0.577c0.168,0.154,0.377,0.231,0.625,0.231c0.309,0,0.624-0.135,0.945-0.404V15.251z M56.782,14.509
		c-0.021-0.154-0.089-0.273-0.202-0.357c-0.113-0.085-0.247-0.127-0.401-0.127c-0.161,0-0.307,0.046-0.435,0.138
		c-0.127,0.092-0.205,0.207-0.234,0.347H56.782z"/>
	<path d="M57.831,14.194c0.413-0.198,0.804-0.297,1.169-0.297c0.171,0,0.294,0.027,0.369,0.082c0.076,0.055,0.113,0.146,0.111,0.277
		v1.221c0,0.059,0.037,0.088,0.109,0.088s0.197-0.061,0.379-0.18v0.121c-0.273,0.193-0.496,0.291-0.669,0.291
		c-0.155,0-0.231-0.063-0.231-0.188v-0.289c-0.225,0.166-0.415,0.287-0.57,0.363c-0.156,0.075-0.303,0.113-0.441,0.113
		c-0.135,0-0.249-0.038-0.344-0.114c-0.096-0.076-0.144-0.169-0.144-0.278c0-0.283,0.499-0.588,1.499-0.914v-0.234
		c0-0.072-0.029-0.131-0.09-0.178c-0.059-0.047-0.141-0.07-0.244-0.07c-0.179,0-0.336,0.063-0.475,0.188s-0.221,0.28-0.248,0.467
		h-0.181V14.194z M59.097,14.649c-0.333,0.049-0.604,0.134-0.811,0.255c-0.207,0.12-0.311,0.243-0.311,0.37
		c0,0.08,0.035,0.145,0.104,0.193c0.07,0.048,0.16,0.072,0.271,0.072c0.207,0,0.383-0.079,0.525-0.237
		C59.02,15.145,59.093,14.927,59.097,14.649z"/>
	<path d="M60.138,14.106l0.708-0.209h0.118v0.635c0.186-0.229,0.352-0.392,0.496-0.487c0.146-0.096,0.295-0.144,0.447-0.144
		c0.061,0,0.131,0.01,0.213,0.029v0.602h-0.191c-0.001-0.236-0.096-0.354-0.282-0.354c-0.185,0-0.351,0.109-0.495,0.329
		c-0.145,0.219-0.217,0.468-0.217,0.745c0,0.164,0.042,0.271,0.125,0.32c0.084,0.049,0.244,0.074,0.479,0.074v0.094h-1.4v-0.094
		c0.146-0.003,0.252-0.026,0.317-0.069c0.064-0.044,0.097-0.122,0.097-0.235v-1.014c0-0.115-0.059-0.172-0.175-0.172
		c-0.049,0-0.128,0.014-0.239,0.043V14.106z"/>
	<path d="M64.523,15.265c-0.394,0.355-0.774,0.533-1.143,0.533c-0.237,0-0.465-0.073-0.681-0.219
		c-0.217-0.146-0.325-0.354-0.325-0.623c0-0.28,0.132-0.527,0.395-0.74c0.264-0.214,0.58-0.32,0.947-0.32
		c0.225,0,0.469,0.043,0.73,0.129v0.51H64.25c-0.005-0.155-0.073-0.281-0.203-0.378c-0.13-0.096-0.294-0.144-0.489-0.144
		c-0.248,0-0.443,0.076-0.584,0.229s-0.211,0.33-0.211,0.53c0,0.217,0.076,0.398,0.231,0.546c0.154,0.147,0.354,0.222,0.599,0.222
		c0.148,0,0.294-0.032,0.436-0.096c0.141-0.064,0.305-0.17,0.494-0.316V15.265z"/>
	<path d="M65.652,12.976v0.084c-0.074,0.021-0.11,0.067-0.11,0.141v1.344c0.21-0.217,0.409-0.379,0.599-0.486
		c0.188-0.108,0.366-0.162,0.533-0.162c0.139,0,0.246,0.035,0.324,0.107c0.076,0.072,0.115,0.18,0.115,0.32v1.02
		c0,0.111,0.031,0.189,0.094,0.234c0.062,0.044,0.168,0.067,0.318,0.07v0.094h-0.943v-0.094c0.08-0.003,0.119-0.038,0.119-0.105
		v-1.166c0-0.085-0.023-0.148-0.071-0.19c-0.048-0.043-0.118-0.063-0.214-0.063c-0.221,0-0.428,0.118-0.617,0.354
		c-0.191,0.236-0.287,0.495-0.287,0.776c0,0.263,0.11,0.395,0.33,0.395h0.107v0.094h-1.227v-0.094
		c0.139-0.003,0.24-0.025,0.307-0.066c0.066-0.042,0.101-0.121,0.101-0.238v-1.928c0-0.077-0.06-0.115-0.179-0.115
		c-0.067,0-0.145,0.012-0.231,0.037v-0.094L65.652,12.976z"/>
</g>
</svg>
