<?xml version="1.0" encoding="utf-8"?>
<!-- Generator: Adobe Illustrator 16.0.0, SVG Export Plug-In . SVG Version: 6.00 Build 0)  -->
<!DOCTYPE svg PUBLIC "-//W3C//DTD SVG 1.1//EN" "http://www.w3.org/Graphics/SVG/1.1/DTD/svg11.dtd">
<svg version="1.1" id="Layer_1" xmlns="http://www.w3.org/2000/svg" xmlns:xlink="http://www.w3.org/1999/xlink" x="0px" y="0px"
	 width="33.794px" height="13.177px" viewBox="0 0 33.794 13.177" enable-background="new 0 0 33.794 13.177" xml:space="preserve">
<g>
	<rect y="3.732" width="22.104" height="8.984"/>
	<g>
		<path fill="#FFFFFF" d="M-0.619,6.625h2.025v0.305C1.241,6.934,1.158,7,1.158,7.127c0,0.06,0.015,0.132,0.045,0.218l1.361,3.947
			l0.724-1.734C3.593,8.821,3.745,8.2,3.745,7.697c0-0.499-0.301-0.755-0.901-0.768V6.625h2.063v0.305
			c-0.183,0-0.273,0.062-0.273,0.184c0,0.06,0.021,0.147,0.063,0.267l1.354,3.906l0.788-1.92c0.279-0.677,0.42-1.242,0.421-1.694
			c0-0.241-0.07-0.425-0.211-0.552C6.91,6.993,6.67,6.929,6.332,6.929V6.625h2.723v0.305C8.773,6.972,8.527,7.122,8.315,7.384
			c-0.212,0.26-0.454,0.718-0.727,1.373l-1.663,3.975H5.545l-1.355-3.91c-0.199,0.372-0.354,0.672-0.464,0.9l-0.223,0.457
			c-0.085,0.161-0.156,0.318-0.216,0.471l-0.853,2.082H2.054l-1.46-4.234C0.386,7.884,0.192,7.472,0.013,7.263
			s-0.391-0.321-0.632-0.333V6.625z"/>
		<path fill="#FFFFFF" d="M11.302,3.451v0.273c-0.173,0.068-0.26,0.22-0.26,0.457v4.367c0.495-0.703,0.965-1.229,1.409-1.581
			s0.863-0.527,1.257-0.527c0.325,0,0.579,0.116,0.762,0.349c0.182,0.237,0.272,0.584,0.272,1.042v3.313
			c0,0.364,0.073,0.618,0.22,0.762c0.146,0.145,0.396,0.221,0.752,0.229v0.305h-2.222v-0.305c0.186-0.008,0.279-0.122,0.279-0.342
			v-3.79c0-0.274-0.056-0.481-0.168-0.618c-0.111-0.139-0.279-0.207-0.502-0.207c-0.522,0-1.008,0.385-1.457,1.152
			c-0.448,0.769-0.673,1.609-0.673,2.523c0,0.855,0.259,1.283,0.776,1.281H12v0.305H9.112v-0.305
			c0.325-0.008,0.566-0.08,0.724-0.215c0.156-0.136,0.234-0.395,0.234-0.775V4.879c0-0.25-0.141-0.375-0.422-0.375
			c-0.157,0-0.338,0.04-0.543,0.121V4.32L11.302,3.451z"/>
		<path fill="#FFFFFF" d="M19.414,6.459c0.8,0,1.44,0.251,1.92,0.752c0.48,0.502,0.721,1.169,0.721,2.002
			c0,0.99,0.103,2.301-0.566,2.942c-0.669,0.641-1.841,0.467-2.646,0.467s-1.438-0.255-1.904-0.765
			c-0.465-0.51-0.698-1.174-0.698-1.99c0-0.973,0.331-1.785,0.993-2.434C17.896,6.784,18.622,6.459,19.414,6.459z M18.874,6.955
			c-0.575,0-1.016,0.205-1.32,0.616c-0.304,0.411-0.456,0.925-0.456,1.542c0,0.762,0.24,1.442,0.72,2.041
			c0.48,0.6,1.04,0.898,1.68,0.898c0.474,0,0.875-0.197,1.202-0.59c0.328-0.395,0.492-0.908,0.492-1.543
			c0-0.588-0.132-1.116-0.394-1.584c-0.262-0.467-0.563-0.814-0.901-1.041S19.218,6.955,18.874,6.955z"/>
	</g>
	<g>
		<path d="M26.036,0.705c-0.699,0.012-1.17,0.125-1.412,0.336c-0.24,0.212-0.359,0.614-0.359,1.206v8.471
			c0,0.997,0.591,1.513,1.771,1.543v0.47h-5.848l0.52-0.192c0.721-0.258,0.796-0.396,1.037-0.611c0.24-0.217,0.362-0.62,0.362-1.209
			V2.247c0-0.631-0.133-1.043-0.397-1.235c-0.265-0.191-0.723-0.295-1.376-0.307V0.235h5.702V0.705z"/>
		<path d="M27.45,9.721c0.062,0.849,0.352,1.505,0.869,1.974c0.517,0.47,1.138,0.703,1.86,0.703c0.599,0,1.087-0.153,1.469-0.459
			c0.381-0.307,0.571-0.693,0.571-1.162c0-0.418-0.143-0.77-0.43-1.056c-0.296-0.279-0.875-0.647-1.738-1.104
			c-0.613-0.325-1.176-0.63-1.68-0.914c-0.506-0.283-0.855-0.571-1.049-0.864c-0.203-0.293-0.305-0.593-0.305-0.899
			c0-0.631,0.349-1.196,1.045-1.69c0.695-0.496,1.618-0.743,2.77-0.743c0.706,0,1.469,0.13,2.285,0.391v2.56H32.28
			c-0.01-0.723-0.251-1.303-0.725-1.739c-0.475-0.437-1.018-0.654-1.633-0.654c-0.436,0-0.775,0.115-1.02,0.346
			c-0.246,0.232-0.367,0.503-0.367,0.816c0,0.352,0.14,0.655,0.419,0.908c0.272,0.261,0.82,0.606,1.645,1.036
			c1.415,0.749,2.302,1.276,2.658,1.583c0.358,0.312,0.536,0.726,0.536,1.24c0,0.814-0.428,1.52-1.287,2.119
			s-1.849,0.898-2.969,0.898c-0.831,0-1.791-0.195-2.881-0.585V9.721H27.45z"/>
	</g>
</g>
</svg>
